<?xml version="1.0" encoding="UTF-8" standalone="no"?>
<!DOCTYPE svg PUBLIC "-//W3C//DTD SVG 1.1//EN"
 "http://www.w3.org/Graphics/SVG/1.1/DTD/svg11.dtd">
<!-- Generated by graphviz version 5.0.0 (20220707.1540)
 -->
<!-- Title: dependencies Pages: 1 -->
<svg width="643pt" height="174pt"
 viewBox="0.00 0.00 643.00 173.80" xmlns="http://www.w3.org/2000/svg" xmlns:xlink="http://www.w3.org/1999/xlink">
<g id="graph0" class="graph" transform="scale(1 1) rotate(0) translate(4 169.8)">
<title>dependencies</title>
<polygon fill="white" stroke="transparent" points="-4,4 -4,-169.8 639,-169.8 639,4 -4,4"/>
<text text-anchor="middle" x="317.5" y="-8.2" font-family="sans-serif" font-size="14.00">dependencies</text>
<g id="clust1" class="cluster">
<title>cluster_OrderModule</title>
<polygon fill="none" stroke="black" stroke-dasharray="1,5" points="8,-32.8 8,-157.8 627,-157.8 627,-32.8 8,-32.8"/>
</g>
<g id="clust6" class="cluster">
<title>cluster_OrderModule_providers</title>
<polygon fill="none" stroke="black" points="138,-40.8 138,-92.8 619,-92.8 619,-40.8 138,-40.8"/>
</g>
<g id="clust3" class="cluster">
<title>cluster_OrderModule_imports</title>
<polygon fill="none" stroke="black" points="16,-40.8 16,-92.8 130,-92.8 130,-40.8 16,-40.8"/>
</g>
<!-- PrismaModule -->
<g id="node1" class="node">
<title>PrismaModule</title>
<polygon fill="#8dd3c7" stroke="black" points="122.44,-84.8 119.44,-88.8 98.44,-88.8 95.44,-84.8 23.56,-84.8 23.56,-48.8 122.44,-48.8 122.44,-84.8"/>
<text text-anchor="middle" x="73" y="-62.6" font-family="Times,serif" font-size="14.00">PrismaModule</text>
</g>
<!-- OrderModule -->
<g id="node2" class="node">
<title>OrderModule</title>
<polygon fill="#8dd3c7" stroke="black" points="323.2,-149.8 320.2,-153.8 299.2,-153.8 296.2,-149.8 230.8,-149.8 230.8,-113.8 323.2,-113.8 323.2,-149.8"/>
<text text-anchor="middle" x="277" y="-127.6" font-family="Times,serif" font-size="14.00">OrderModule</text>
</g>
<!-- PrismaModule&#45;&gt;OrderModule -->
<g id="edge1" class="edge">
<title>PrismaModule&#45;&gt;OrderModule</title>
<path fill="none" stroke="black" d="M73,-84.91C73,-104.14 73,-131.8 73,-131.8 73,-131.8 220.71,-131.8 220.71,-131.8"/>
<polygon fill="black" stroke="black" points="220.71,-135.3 230.71,-131.8 220.71,-128.3 220.71,-135.3"/>
</g>
<!-- JwtAdmOnlyStrategy -->
<g id="node3" class="node">
<title>JwtAdmOnlyStrategy</title>
<ellipse fill="#fdb462" stroke="black" cx="516" cy="-66.8" rx="95.02" ry="18"/>
<text text-anchor="middle" x="516" y="-62.6" font-family="Times,serif" font-size="14.00">JwtAdmOnlyStrategy</text>
</g>
<!-- JwtAdmOnlyStrategy&#45;&gt;OrderModule -->
<g id="edge2" class="edge">
<title>JwtAdmOnlyStrategy&#45;&gt;OrderModule</title>
<path fill="none" stroke="black" d="M516,-84.91C516,-104.14 516,-131.8 516,-131.8 516,-131.8 333.36,-131.8 333.36,-131.8"/>
<polygon fill="black" stroke="black" points="333.37,-128.3 323.36,-131.8 333.36,-135.3 333.37,-128.3"/>
</g>
<!-- JwtStrategy -->
<g id="node4" class="node">
<title>JwtStrategy</title>
<ellipse fill="#fdb462" stroke="black" cx="346" cy="-66.8" rx="56.77" ry="18"/>
<text text-anchor="middle" x="346" y="-62.6" font-family="Times,serif" font-size="14.00">JwtStrategy</text>
</g>
<!-- JwtStrategy&#45;&gt;OrderModule -->
<g id="edge3" class="edge">
<title>JwtStrategy&#45;&gt;OrderModule</title>
<path fill="none" stroke="black" d="M306.23,-79.64C306.23,-79.64 306.23,-103.32 306.23,-103.32"/>
<polygon fill="black" stroke="black" points="302.73,-103.32 306.23,-113.32 309.73,-103.32 302.73,-103.32"/>
</g>
<!-- OrderService -->
<g id="node5" class="node">
<title>OrderService</title>
<ellipse fill="#fdb462" stroke="black" cx="209" cy="-66.8" rx="62.53" ry="18"/>
<text text-anchor="middle" x="209" y="-62.6" font-family="Times,serif" font-size="14.00">OrderService</text>
</g>
<!-- OrderService&#45;&gt;OrderModule -->
<g id="edge4" class="edge">
<title>OrderService&#45;&gt;OrderModule</title>
<path fill="none" stroke="black" d="M251.21,-80.27C251.21,-80.27 251.21,-103.66 251.21,-103.66"/>
<polygon fill="black" stroke="black" points="247.71,-103.66 251.21,-113.66 254.71,-103.66 247.71,-103.66"/>
</g>
</g>
</svg>
