<?xml version="1.0" encoding="UTF-8" standalone="no"?>
<!DOCTYPE svg PUBLIC "-//W3C//DTD SVG 1.1//EN"
 "http://www.w3.org/Graphics/SVG/1.1/DTD/svg11.dtd">
<!-- Generated by graphviz version 5.0.0 (20220707.1540)
 -->
<!-- Title: dependencies Pages: 1 -->
<svg width="634pt" height="174pt"
 viewBox="0.00 0.00 634.00 173.80" xmlns="http://www.w3.org/2000/svg" xmlns:xlink="http://www.w3.org/1999/xlink">
<g id="graph0" class="graph" transform="scale(1 1) rotate(0) translate(4 169.8)">
<title>dependencies</title>
<polygon fill="white" stroke="transparent" points="-4,4 -4,-169.8 630,-169.8 630,4 -4,4"/>
<text text-anchor="middle" x="313" y="-8.2" font-family="sans-serif" font-size="14.00">dependencies</text>
<g id="clust1" class="cluster">
<title>cluster_UserModule</title>
<polygon fill="none" stroke="black" stroke-dasharray="1,5" points="8,-32.8 8,-157.8 618,-157.8 618,-32.8 8,-32.8"/>
</g>
<g id="clust6" class="cluster">
<title>cluster_UserModule_providers</title>
<polygon fill="none" stroke="black" points="138,-40.8 138,-92.8 610,-92.8 610,-40.8 138,-40.8"/>
</g>
<g id="clust3" class="cluster">
<title>cluster_UserModule_imports</title>
<polygon fill="none" stroke="black" points="16,-40.8 16,-92.8 130,-92.8 130,-40.8 16,-40.8"/>
</g>
<!-- PrismaModule -->
<g id="node1" class="node">
<title>PrismaModule</title>
<polygon fill="#8dd3c7" stroke="black" points="122.44,-84.8 119.44,-88.8 98.44,-88.8 95.44,-84.8 23.56,-84.8 23.56,-48.8 122.44,-48.8 122.44,-84.8"/>
<text text-anchor="middle" x="73" y="-62.6" font-family="Times,serif" font-size="14.00">PrismaModule</text>
</g>
<!-- UserModule -->
<g id="node2" class="node">
<title>UserModule</title>
<polygon fill="#8dd3c7" stroke="black" points="312.99,-149.8 309.99,-153.8 288.99,-153.8 285.99,-149.8 227.01,-149.8 227.01,-113.8 312.99,-113.8 312.99,-149.8"/>
<text text-anchor="middle" x="270" y="-127.6" font-family="Times,serif" font-size="14.00">UserModule</text>
</g>
<!-- PrismaModule&#45;&gt;UserModule -->
<g id="edge1" class="edge">
<title>PrismaModule&#45;&gt;UserModule</title>
<path fill="none" stroke="black" d="M73,-84.91C73,-104.14 73,-131.8 73,-131.8 73,-131.8 216.77,-131.8 216.77,-131.8"/>
<polygon fill="black" stroke="black" points="216.77,-135.3 226.77,-131.8 216.77,-128.3 216.77,-135.3"/>
</g>
<!-- JwtAdmOnlyStrategy -->
<g id="node3" class="node">
<title>JwtAdmOnlyStrategy</title>
<ellipse fill="#fdb462" stroke="black" cx="507" cy="-66.8" rx="95.02" ry="18"/>
<text text-anchor="middle" x="507" y="-62.6" font-family="Times,serif" font-size="14.00">JwtAdmOnlyStrategy</text>
</g>
<!-- JwtAdmOnlyStrategy&#45;&gt;UserModule -->
<g id="edge2" class="edge">
<title>JwtAdmOnlyStrategy&#45;&gt;UserModule</title>
<path fill="none" stroke="black" d="M507,-84.91C507,-104.14 507,-131.8 507,-131.8 507,-131.8 323.19,-131.8 323.19,-131.8"/>
<polygon fill="black" stroke="black" points="323.19,-128.3 313.19,-131.8 323.19,-135.3 323.19,-128.3"/>
</g>
<!-- JwtStrategy -->
<g id="node4" class="node">
<title>JwtStrategy</title>
<ellipse fill="#fdb462" stroke="black" cx="337" cy="-66.8" rx="56.77" ry="18"/>
<text text-anchor="middle" x="337" y="-62.6" font-family="Times,serif" font-size="14.00">JwtStrategy</text>
</g>
<!-- JwtStrategy&#45;&gt;UserModule -->
<g id="edge3" class="edge">
<title>JwtStrategy&#45;&gt;UserModule</title>
<path fill="none" stroke="black" d="M296.68,-79.64C296.68,-79.64 296.68,-103.32 296.68,-103.32"/>
<polygon fill="black" stroke="black" points="293.18,-103.32 296.68,-113.32 300.18,-103.32 293.18,-103.32"/>
</g>
<!-- UserService -->
<g id="node5" class="node">
<title>UserService</title>
<ellipse fill="#fdb462" stroke="black" cx="204" cy="-66.8" rx="58.46" ry="18"/>
<text text-anchor="middle" x="204" y="-62.6" font-family="Times,serif" font-size="14.00">UserService</text>
</g>
<!-- UserService&#45;&gt;UserModule -->
<g id="edge4" class="edge">
<title>UserService&#45;&gt;UserModule</title>
<path fill="none" stroke="black" d="M244.62,-79.95C244.62,-79.95 244.62,-103.49 244.62,-103.49"/>
<polygon fill="black" stroke="black" points="241.12,-103.49 244.62,-113.49 248.12,-103.49 241.12,-103.49"/>
</g>
</g>
</svg>
