<?xml version="1.0" encoding="UTF-8" standalone="no"?>
<!DOCTYPE svg PUBLIC "-//W3C//DTD SVG 1.1//EN"
 "http://www.w3.org/Graphics/SVG/1.1/DTD/svg11.dtd">
<!-- Generated by graphviz version 5.0.0 (20220707.1540)
 -->
<!-- Title: dependencies Pages: 1 -->
<svg width="537pt" height="174pt"
 viewBox="0.00 0.00 537.00 173.80" xmlns="http://www.w3.org/2000/svg" xmlns:xlink="http://www.w3.org/1999/xlink">
<g id="graph0" class="graph" transform="scale(1 1) rotate(0) translate(4 169.8)">
<title>dependencies</title>
<polygon fill="white" stroke="transparent" points="-4,4 -4,-169.8 533,-169.8 533,4 -4,4"/>
<text text-anchor="middle" x="264.5" y="-8.2" font-family="sans-serif" font-size="14.00">dependencies</text>
<g id="clust1" class="cluster">
<title>cluster_CategoryModule</title>
<polygon fill="none" stroke="black" stroke-dasharray="1,5" points="8,-32.8 8,-157.8 521,-157.8 521,-32.8 8,-32.8"/>
</g>
<g id="clust3" class="cluster">
<title>cluster_CategoryModule_imports</title>
<polygon fill="none" stroke="black" points="399,-40.8 399,-92.8 513,-92.8 513,-40.8 399,-40.8"/>
</g>
<g id="clust6" class="cluster">
<title>cluster_CategoryModule_providers</title>
<polygon fill="none" stroke="black" points="16,-40.8 16,-92.8 391,-92.8 391,-40.8 16,-40.8"/>
</g>
<!-- PrismaModule -->
<g id="node1" class="node">
<title>PrismaModule</title>
<polygon fill="#8dd3c7" stroke="black" points="505.44,-84.8 502.44,-88.8 481.44,-88.8 478.44,-84.8 406.56,-84.8 406.56,-48.8 505.44,-48.8 505.44,-84.8"/>
<text text-anchor="middle" x="456" y="-62.6" font-family="Times,serif" font-size="14.00">PrismaModule</text>
</g>
<!-- CategoryModule -->
<g id="node2" class="node">
<title>CategoryModule</title>
<polygon fill="#8dd3c7" stroke="black" points="363.37,-149.8 360.37,-153.8 339.37,-153.8 336.37,-149.8 252.63,-149.8 252.63,-113.8 363.37,-113.8 363.37,-149.8"/>
<text text-anchor="middle" x="308" y="-127.6" font-family="Times,serif" font-size="14.00">CategoryModule</text>
</g>
<!-- PrismaModule&#45;&gt;CategoryModule -->
<g id="edge1" class="edge">
<title>PrismaModule&#45;&gt;CategoryModule</title>
<path fill="none" stroke="black" d="M456,-84.91C456,-104.14 456,-131.8 456,-131.8 456,-131.8 373.53,-131.8 373.53,-131.8"/>
<polygon fill="black" stroke="black" points="373.53,-128.3 363.53,-131.8 373.53,-135.3 373.53,-128.3"/>
</g>
<!-- CategoryService -->
<g id="node3" class="node">
<title>CategoryService</title>
<ellipse fill="#fdb462" stroke="black" cx="308" cy="-66.8" rx="75.28" ry="18"/>
<text text-anchor="middle" x="308" y="-62.6" font-family="Times,serif" font-size="14.00">CategoryService</text>
</g>
<!-- CategoryService&#45;&gt;CategoryModule -->
<g id="edge2" class="edge">
<title>CategoryService&#45;&gt;CategoryModule</title>
<path fill="none" stroke="black" d="M308,-84.91C308,-84.91 308,-103.79 308,-103.79"/>
<polygon fill="black" stroke="black" points="304.5,-103.79 308,-113.79 311.5,-103.79 304.5,-103.79"/>
</g>
<!-- JwtAdmOnlyStrategy -->
<g id="node4" class="node">
<title>JwtAdmOnlyStrategy</title>
<ellipse fill="#fdb462" stroke="black" cx="119" cy="-66.8" rx="95.02" ry="18"/>
<text text-anchor="middle" x="119" y="-62.6" font-family="Times,serif" font-size="14.00">JwtAdmOnlyStrategy</text>
</g>
<!-- JwtAdmOnlyStrategy&#45;&gt;CategoryModule -->
<g id="edge3" class="edge">
<title>JwtAdmOnlyStrategy&#45;&gt;CategoryModule</title>
<path fill="none" stroke="black" d="M119,-84.91C119,-104.14 119,-131.8 119,-131.8 119,-131.8 242.57,-131.8 242.57,-131.8"/>
<polygon fill="black" stroke="black" points="242.57,-135.3 252.57,-131.8 242.57,-128.3 242.57,-135.3"/>
</g>
</g>
</svg>
