<?xml version="1.0" encoding="UTF-8" standalone="no"?>
<!DOCTYPE svg PUBLIC "-//W3C//DTD SVG 1.1//EN"
 "http://www.w3.org/Graphics/SVG/1.1/DTD/svg11.dtd">
<!-- Generated by graphviz version 5.0.0 (20220707.1540)
 -->
<!-- Title: dependencies Pages: 1 -->
<svg width="972pt" height="174pt"
 viewBox="0.00 0.00 972.00 173.80" xmlns="http://www.w3.org/2000/svg" xmlns:xlink="http://www.w3.org/1999/xlink">
<g id="graph0" class="graph" transform="scale(1 1) rotate(0) translate(4 169.8)">
<title>dependencies</title>
<polygon fill="white" stroke="transparent" points="-4,4 -4,-169.8 968,-169.8 968,4 -4,4"/>
<text text-anchor="middle" x="482" y="-8.2" font-family="sans-serif" font-size="14.00">dependencies</text>
<g id="clust1" class="cluster">
<title>cluster_AppModule</title>
<polygon fill="none" stroke="black" stroke-dasharray="1,5" points="8,-32.8 8,-157.8 956,-157.8 956,-32.8 8,-32.8"/>
</g>
<g id="clust6" class="cluster">
<title>cluster_AppModule_providers</title>
<polygon fill="none" stroke="black" points="818,-40.8 818,-92.8 948,-92.8 948,-40.8 818,-40.8"/>
</g>
<g id="clust3" class="cluster">
<title>cluster_AppModule_imports</title>
<polygon fill="none" stroke="black" points="16,-40.8 16,-92.8 810,-92.8 810,-40.8 16,-40.8"/>
</g>
<!-- AuthModule -->
<g id="node1" class="node">
<title>AuthModule</title>
<polygon fill="#8dd3c7" stroke="black" points="801.55,-84.8 798.55,-88.8 777.55,-88.8 774.55,-84.8 714.45,-84.8 714.45,-48.8 801.55,-48.8 801.55,-84.8"/>
<text text-anchor="middle" x="758" y="-62.6" font-family="Times,serif" font-size="14.00">AuthModule</text>
</g>
<!-- AppModule -->
<g id="node8" class="node">
<title>AppModule</title>
<polygon fill="#8dd3c7" stroke="black" points="505.66,-149.8 502.66,-153.8 481.66,-153.8 478.66,-149.8 422.34,-149.8 422.34,-113.8 505.66,-113.8 505.66,-149.8"/>
<text text-anchor="middle" x="464" y="-127.6" font-family="Times,serif" font-size="14.00">AppModule</text>
</g>
<!-- AuthModule&#45;&gt;AppModule -->
<g id="edge1" class="edge">
<title>AuthModule&#45;&gt;AppModule</title>
<path fill="none" stroke="black" d="M758,-84.91C758,-104.14 758,-131.8 758,-131.8 758,-131.8 515.81,-131.8 515.81,-131.8"/>
<polygon fill="black" stroke="black" points="515.81,-128.3 505.81,-131.8 515.81,-135.3 515.81,-128.3"/>
</g>
<!-- CategoryModule -->
<g id="node2" class="node">
<title>CategoryModule</title>
<polygon fill="#8dd3c7" stroke="black" points="696.37,-84.8 693.37,-88.8 672.37,-88.8 669.37,-84.8 585.63,-84.8 585.63,-48.8 696.37,-48.8 696.37,-84.8"/>
<text text-anchor="middle" x="641" y="-62.6" font-family="Times,serif" font-size="14.00">CategoryModule</text>
</g>
<!-- CategoryModule&#45;&gt;AppModule -->
<g id="edge2" class="edge">
<title>CategoryModule&#45;&gt;AppModule</title>
<path fill="none" stroke="black" d="M641,-84.83C641,-101.2 641,-122.8 641,-122.8 641,-122.8 515.95,-122.8 515.95,-122.8"/>
<polygon fill="black" stroke="black" points="515.95,-119.3 505.95,-122.8 515.95,-126.3 515.95,-119.3"/>
</g>
<!-- OrderModule -->
<g id="node3" class="node">
<title>OrderModule</title>
<polygon fill="#8dd3c7" stroke="black" points="567.2,-84.8 564.2,-88.8 543.2,-88.8 540.2,-84.8 474.8,-84.8 474.8,-48.8 567.2,-48.8 567.2,-84.8"/>
<text text-anchor="middle" x="521" y="-62.6" font-family="Times,serif" font-size="14.00">OrderModule</text>
</g>
<!-- OrderModule&#45;&gt;AppModule -->
<g id="edge3" class="edge">
<title>OrderModule&#45;&gt;AppModule</title>
<path fill="none" stroke="black" d="M490.37,-84.91C490.37,-84.91 490.37,-103.79 490.37,-103.79"/>
<polygon fill="black" stroke="black" points="486.87,-103.79 490.37,-113.79 493.87,-103.79 486.87,-103.79"/>
</g>
<!-- PrismaModule -->
<g id="node4" class="node">
<title>PrismaModule</title>
<polygon fill="#8dd3c7" stroke="black" points="457.44,-84.8 454.44,-88.8 433.44,-88.8 430.44,-84.8 358.56,-84.8 358.56,-48.8 457.44,-48.8 457.44,-84.8"/>
<text text-anchor="middle" x="408" y="-62.6" font-family="Times,serif" font-size="14.00">PrismaModule</text>
</g>
<!-- PrismaModule&#45;&gt;AppModule -->
<g id="edge4" class="edge">
<title>PrismaModule&#45;&gt;AppModule</title>
<path fill="none" stroke="black" d="M439.69,-84.91C439.69,-84.91 439.69,-103.79 439.69,-103.79"/>
<polygon fill="black" stroke="black" points="436.19,-103.79 439.69,-113.79 443.19,-103.79 436.19,-103.79"/>
</g>
<!-- ProductModule -->
<g id="node5" class="node">
<title>ProductModule</title>
<polygon fill="#8dd3c7" stroke="black" points="340.6,-84.8 337.6,-88.8 316.6,-88.8 313.6,-84.8 237.4,-84.8 237.4,-48.8 340.6,-48.8 340.6,-84.8"/>
<text text-anchor="middle" x="289" y="-62.6" font-family="Times,serif" font-size="14.00">ProductModule</text>
</g>
<!-- ProductModule&#45;&gt;AppModule -->
<g id="edge5" class="edge">
<title>ProductModule&#45;&gt;AppModule</title>
<path fill="none" stroke="black" d="M289,-84.83C289,-101.2 289,-122.8 289,-122.8 289,-122.8 412.08,-122.8 412.08,-122.8"/>
<polygon fill="black" stroke="black" points="412.08,-126.3 422.08,-122.8 412.08,-119.3 412.08,-126.3"/>
</g>
<!-- TableModule -->
<g id="node6" class="node">
<title>TableModule</title>
<polygon fill="#8dd3c7" stroke="black" points="219.92,-84.8 216.92,-88.8 195.92,-88.8 192.92,-84.8 128.08,-84.8 128.08,-48.8 219.92,-48.8 219.92,-84.8"/>
<text text-anchor="middle" x="174" y="-62.6" font-family="Times,serif" font-size="14.00">TableModule</text>
</g>
<!-- TableModule&#45;&gt;AppModule -->
<g id="edge6" class="edge">
<title>TableModule&#45;&gt;AppModule</title>
<path fill="none" stroke="black" d="M174,-84.91C174,-104.14 174,-131.8 174,-131.8 174,-131.8 412.14,-131.8 412.14,-131.8"/>
<polygon fill="black" stroke="black" points="412.14,-135.3 422.14,-131.8 412.14,-128.3 412.14,-135.3"/>
</g>
<!-- UserModule -->
<g id="node7" class="node">
<title>UserModule</title>
<polygon fill="#8dd3c7" stroke="black" points="109.99,-84.8 106.99,-88.8 85.99,-88.8 82.99,-84.8 24.01,-84.8 24.01,-48.8 109.99,-48.8 109.99,-84.8"/>
<text text-anchor="middle" x="67" y="-62.6" font-family="Times,serif" font-size="14.00">UserModule</text>
</g>
<!-- UserModule&#45;&gt;AppModule -->
<g id="edge7" class="edge">
<title>UserModule&#45;&gt;AppModule</title>
<path fill="none" stroke="black" d="M67,-85.09C67,-107.01 67,-140.8 67,-140.8 67,-140.8 412.26,-140.8 412.26,-140.8"/>
<polygon fill="black" stroke="black" points="412.26,-144.3 422.26,-140.8 412.26,-137.3 412.26,-144.3"/>
</g>
<!-- AppService -->
<g id="node9" class="node">
<title>AppService</title>
<ellipse fill="#fdb462" stroke="black" cx="883" cy="-66.8" rx="56.75" ry="18"/>
<text text-anchor="middle" x="883" y="-62.6" font-family="Times,serif" font-size="14.00">AppService</text>
</g>
<!-- AppService&#45;&gt;AppModule -->
<g id="edge8" class="edge">
<title>AppService&#45;&gt;AppModule</title>
<path fill="none" stroke="black" d="M883,-85.09C883,-107.01 883,-140.8 883,-140.8 883,-140.8 515.71,-140.8 515.71,-140.8"/>
<polygon fill="black" stroke="black" points="515.71,-137.3 505.71,-140.8 515.71,-144.3 515.71,-137.3"/>
</g>
</g>
</svg>
