<?xml version="1.0" encoding="UTF-8" standalone="no"?>
<!DOCTYPE svg PUBLIC "-//W3C//DTD SVG 1.1//EN"
 "http://www.w3.org/Graphics/SVG/1.1/DTD/svg11.dtd">
<!-- Generated by graphviz version 5.0.0 (20220707.1540)
 -->
<!-- Title: dependencies Pages: 1 -->
<svg width="642pt" height="174pt"
 viewBox="0.00 0.00 642.00 173.80" xmlns="http://www.w3.org/2000/svg" xmlns:xlink="http://www.w3.org/1999/xlink">
<g id="graph0" class="graph" transform="scale(1 1) rotate(0) translate(4 169.8)">
<title>dependencies</title>
<polygon fill="white" stroke="transparent" points="-4,4 -4,-169.8 638,-169.8 638,4 -4,4"/>
<text text-anchor="middle" x="317" y="-8.2" font-family="sans-serif" font-size="14.00">dependencies</text>
<g id="clust1" class="cluster">
<title>cluster_TableModule</title>
<polygon fill="none" stroke="black" stroke-dasharray="1,5" points="8,-32.8 8,-157.8 626,-157.8 626,-32.8 8,-32.8"/>
</g>
<g id="clust6" class="cluster">
<title>cluster_TableModule_providers</title>
<polygon fill="none" stroke="black" points="138,-40.8 138,-92.8 618,-92.8 618,-40.8 138,-40.8"/>
</g>
<g id="clust3" class="cluster">
<title>cluster_TableModule_imports</title>
<polygon fill="none" stroke="black" points="16,-40.8 16,-92.8 130,-92.8 130,-40.8 16,-40.8"/>
</g>
<!-- PrismaModule -->
<g id="node1" class="node">
<title>PrismaModule</title>
<polygon fill="#8dd3c7" stroke="black" points="122.44,-84.8 119.44,-88.8 98.44,-88.8 95.44,-84.8 23.56,-84.8 23.56,-48.8 122.44,-48.8 122.44,-84.8"/>
<text text-anchor="middle" x="73" y="-62.6" font-family="Times,serif" font-size="14.00">PrismaModule</text>
</g>
<!-- TableModule -->
<g id="node2" class="node">
<title>TableModule</title>
<polygon fill="#8dd3c7" stroke="black" points="321.92,-149.8 318.92,-153.8 297.92,-153.8 294.92,-149.8 230.08,-149.8 230.08,-113.8 321.92,-113.8 321.92,-149.8"/>
<text text-anchor="middle" x="276" y="-127.6" font-family="Times,serif" font-size="14.00">TableModule</text>
</g>
<!-- PrismaModule&#45;&gt;TableModule -->
<g id="edge1" class="edge">
<title>PrismaModule&#45;&gt;TableModule</title>
<path fill="none" stroke="black" d="M73,-84.91C73,-104.14 73,-131.8 73,-131.8 73,-131.8 220.19,-131.8 220.19,-131.8"/>
<polygon fill="black" stroke="black" points="220.19,-135.3 230.19,-131.8 220.19,-128.3 220.19,-135.3"/>
</g>
<!-- JwtAdmOnlyStrategy -->
<g id="node3" class="node">
<title>JwtAdmOnlyStrategy</title>
<ellipse fill="#fdb462" stroke="black" cx="515" cy="-66.8" rx="95.02" ry="18"/>
<text text-anchor="middle" x="515" y="-62.6" font-family="Times,serif" font-size="14.00">JwtAdmOnlyStrategy</text>
</g>
<!-- JwtAdmOnlyStrategy&#45;&gt;TableModule -->
<g id="edge2" class="edge">
<title>JwtAdmOnlyStrategy&#45;&gt;TableModule</title>
<path fill="none" stroke="black" d="M515,-84.91C515,-104.14 515,-131.8 515,-131.8 515,-131.8 331.8,-131.8 331.8,-131.8"/>
<polygon fill="black" stroke="black" points="331.8,-128.3 321.8,-131.8 331.8,-135.3 331.8,-128.3"/>
</g>
<!-- JwtStrategy -->
<g id="node4" class="node">
<title>JwtStrategy</title>
<ellipse fill="#fdb462" stroke="black" cx="345" cy="-66.8" rx="56.77" ry="18"/>
<text text-anchor="middle" x="345" y="-62.6" font-family="Times,serif" font-size="14.00">JwtStrategy</text>
</g>
<!-- JwtStrategy&#45;&gt;TableModule -->
<g id="edge3" class="edge">
<title>JwtStrategy&#45;&gt;TableModule</title>
<path fill="none" stroke="black" d="M305.04,-79.64C305.04,-79.64 305.04,-103.32 305.04,-103.32"/>
<polygon fill="black" stroke="black" points="301.54,-103.32 305.04,-113.32 308.54,-103.32 301.54,-103.32"/>
</g>
<!-- TableService -->
<g id="node5" class="node">
<title>TableService</title>
<ellipse fill="#fdb462" stroke="black" cx="208" cy="-66.8" rx="61.95" ry="18"/>
<text text-anchor="middle" x="208" y="-62.6" font-family="Times,serif" font-size="14.00">TableService</text>
</g>
<!-- TableService&#45;&gt;TableModule -->
<g id="edge4" class="edge">
<title>TableService&#45;&gt;TableModule</title>
<path fill="none" stroke="black" d="M250.13,-80.27C250.13,-80.27 250.13,-103.66 250.13,-103.66"/>
<polygon fill="black" stroke="black" points="246.63,-103.66 250.13,-113.66 253.63,-103.66 246.63,-103.66"/>
</g>
</g>
</svg>
