<?xml version="1.0" encoding="UTF-8" standalone="no"?>
<!DOCTYPE svg PUBLIC "-//W3C//DTD SVG 1.1//EN"
 "http://www.w3.org/Graphics/SVG/1.1/DTD/svg11.dtd">
<!-- Generated by graphviz version 5.0.0 (20220707.1540)
 -->
<!-- Title: dependencies Pages: 1 -->
<svg width="2521pt" height="250pt"
 viewBox="0.00 0.00 2521.00 249.80" xmlns="http://www.w3.org/2000/svg" xmlns:xlink="http://www.w3.org/1999/xlink">
<g id="graph0" class="graph" transform="scale(1 1) rotate(0) translate(4 245.8)">
<title>dependencies</title>
<polygon fill="white" stroke="transparent" points="-4,4 -4,-245.8 2517,-245.8 2517,4 -4,4"/>
<text text-anchor="middle" x="1256.5" y="-8.2" font-family="sans-serif" font-size="14.00">dependencies</text>
<g id="clust1" class="cluster">
<title>cluster_AppModule</title>
<polygon fill="none" stroke="black" stroke-dasharray="1,5" points="1363,-32.8 1363,-233.8 2207,-233.8 2207,-32.8 1363,-32.8"/>
</g>
<g id="clust3" class="cluster">
<title>cluster_AppModule_imports</title>
<polygon fill="none" stroke="black" points="1509,-40.8 1509,-168.8 2187,-168.8 2187,-40.8 1509,-40.8"/>
</g>
<g id="clust6" class="cluster">
<title>cluster_AppModule_providers</title>
<polygon fill="none" stroke="black" points="1371,-116.8 1371,-168.8 1501,-168.8 1501,-116.8 1371,-116.8"/>
</g>
<g id="clust7" class="cluster">
<title>cluster_AuthModule</title>
<polygon fill="none" stroke="black" stroke-dasharray="1,5" points="8,-32.8 8,-100.8 290,-100.8 290,-32.8 8,-32.8"/>
</g>
<g id="clust12" class="cluster">
<title>cluster_AuthModule_providers</title>
<polygon fill="none" stroke="black" points="16,-40.8 16,-92.8 282,-92.8 282,-40.8 16,-40.8"/>
</g>
<g id="clust13" class="cluster">
<title>cluster_CategoryModule</title>
<polygon fill="none" stroke="black" stroke-dasharray="1,5" points="298,-32.8 298,-100.8 689,-100.8 689,-32.8 298,-32.8"/>
</g>
<g id="clust18" class="cluster">
<title>cluster_CategoryModule_providers</title>
<polygon fill="none" stroke="black" points="306,-40.8 306,-92.8 681,-92.8 681,-40.8 306,-40.8"/>
</g>
<g id="clust19" class="cluster">
<title>cluster_OrderModule</title>
<polygon fill="none" stroke="black" stroke-dasharray="1,5" points="697,-32.8 697,-100.8 855,-100.8 855,-32.8 697,-32.8"/>
</g>
<g id="clust24" class="cluster">
<title>cluster_OrderModule_providers</title>
<polygon fill="none" stroke="black" points="705,-40.8 705,-92.8 847,-92.8 847,-40.8 705,-40.8"/>
</g>
<g id="clust25" class="cluster">
<title>cluster_PrismaModule</title>
<polygon fill="none" stroke="black" stroke-dasharray="1,5" points="2215,-108.8 2215,-176.8 2505,-176.8 2505,-108.8 2215,-108.8"/>
</g>
<g id="clust28" class="cluster">
<title>cluster_PrismaModule_exports</title>
<polygon fill="none" stroke="black" points="2381,-116.8 2381,-168.8 2497,-168.8 2497,-116.8 2381,-116.8"/>
</g>
<g id="clust30" class="cluster">
<title>cluster_PrismaModule_providers</title>
<polygon fill="none" stroke="black" points="2223,-116.8 2223,-168.8 2373,-168.8 2373,-116.8 2223,-116.8"/>
</g>
<g id="clust31" class="cluster">
<title>cluster_ProductModule</title>
<polygon fill="none" stroke="black" stroke-dasharray="1,5" points="863,-32.8 863,-100.8 1035,-100.8 1035,-32.8 863,-32.8"/>
</g>
<g id="clust36" class="cluster">
<title>cluster_ProductModule_providers</title>
<polygon fill="none" stroke="black" points="871,-40.8 871,-92.8 1027,-92.8 1027,-40.8 871,-40.8"/>
</g>
<g id="clust37" class="cluster">
<title>cluster_TableModule</title>
<polygon fill="none" stroke="black" stroke-dasharray="1,5" points="1043,-32.8 1043,-100.8 1199,-100.8 1199,-32.8 1043,-32.8"/>
</g>
<g id="clust42" class="cluster">
<title>cluster_TableModule_providers</title>
<polygon fill="none" stroke="black" points="1051,-40.8 1051,-92.8 1191,-92.8 1191,-40.8 1051,-40.8"/>
</g>
<g id="clust43" class="cluster">
<title>cluster_UserModule</title>
<polygon fill="none" stroke="black" stroke-dasharray="1,5" points="1207,-32.8 1207,-100.8 1355,-100.8 1355,-32.8 1207,-32.8"/>
</g>
<g id="clust48" class="cluster">
<title>cluster_UserModule_providers</title>
<polygon fill="none" stroke="black" points="1215,-40.8 1215,-92.8 1347,-92.8 1347,-40.8 1215,-40.8"/>
</g>
<!-- AuthModule -->
<g id="node1" class="node">
<title>AuthModule</title>
<polygon fill="#8dd3c7" stroke="black" points="1604.55,-160.8 1601.55,-164.8 1580.55,-164.8 1577.55,-160.8 1517.45,-160.8 1517.45,-124.8 1604.55,-124.8 1604.55,-160.8"/>
<text text-anchor="middle" x="1561" y="-138.6" font-family="Times,serif" font-size="14.00">AuthModule</text>
</g>
<!-- AppModule -->
<g id="node8" class="node">
<title>AppModule</title>
<polygon fill="#8dd3c7" stroke="black" points="1873.66,-225.8 1870.66,-229.8 1849.66,-229.8 1846.66,-225.8 1790.34,-225.8 1790.34,-189.8 1873.66,-189.8 1873.66,-225.8"/>
<text text-anchor="middle" x="1832" y="-203.6" font-family="Times,serif" font-size="14.00">AppModule</text>
</g>
<!-- AuthModule&#45;&gt;AppModule -->
<g id="edge1" class="edge">
<title>AuthModule&#45;&gt;AppModule</title>
<path fill="none" stroke="black" d="M1561,-160.91C1561,-180.14 1561,-207.8 1561,-207.8 1561,-207.8 1780.25,-207.8 1780.25,-207.8"/>
<polygon fill="black" stroke="black" points="1780.25,-211.3 1790.25,-207.8 1780.25,-204.3 1780.25,-211.3"/>
</g>
<!-- CategoryModule -->
<g id="node2" class="node">
<title>CategoryModule</title>
<polygon fill="#8dd3c7" stroke="black" points="2057.37,-160.8 2054.37,-164.8 2033.37,-164.8 2030.37,-160.8 1946.63,-160.8 1946.63,-124.8 2057.37,-124.8 2057.37,-160.8"/>
<text text-anchor="middle" x="2002" y="-138.6" font-family="Times,serif" font-size="14.00">CategoryModule</text>
</g>
<!-- CategoryModule&#45;&gt;AppModule -->
<g id="edge2" class="edge">
<title>CategoryModule&#45;&gt;AppModule</title>
<path fill="none" stroke="black" d="M2002,-160.82C2002,-178.17 2002,-201.8 2002,-201.8 2002,-201.8 1884.02,-201.8 1884.02,-201.8"/>
<polygon fill="black" stroke="black" points="1884.02,-198.3 1874.02,-201.8 1884.02,-205.3 1884.02,-198.3"/>
</g>
<!-- OrderModule -->
<g id="node3" class="node">
<title>OrderModule</title>
<polygon fill="#8dd3c7" stroke="black" points="1715.2,-160.8 1712.2,-164.8 1691.2,-164.8 1688.2,-160.8 1622.8,-160.8 1622.8,-124.8 1715.2,-124.8 1715.2,-160.8"/>
<text text-anchor="middle" x="1669" y="-138.6" font-family="Times,serif" font-size="14.00">OrderModule</text>
</g>
<!-- OrderModule&#45;&gt;AppModule -->
<g id="edge3" class="edge">
<title>OrderModule&#45;&gt;AppModule</title>
<path fill="none" stroke="black" d="M1669,-160.83C1669,-177.2 1669,-198.8 1669,-198.8 1669,-198.8 1780.02,-198.8 1780.02,-198.8"/>
<polygon fill="black" stroke="black" points="1780.02,-202.3 1790.02,-198.8 1780.02,-195.3 1780.02,-202.3"/>
</g>
<!-- PrismaModule -->
<g id="node4" class="node">
<title>PrismaModule</title>
<polygon fill="#8dd3c7" stroke="black" points="2051.44,-84.8 2048.44,-88.8 2027.44,-88.8 2024.44,-84.8 1952.56,-84.8 1952.56,-48.8 2051.44,-48.8 2051.44,-84.8"/>
<text text-anchor="middle" x="2002" y="-62.6" font-family="Times,serif" font-size="14.00">PrismaModule</text>
</g>
<!-- PrismaModule&#45;&gt;AuthModule -->
<g id="edge9" class="edge">
<title>PrismaModule&#45;&gt;AuthModule</title>
<path fill="none" stroke="black" d="M1952.69,-59.8C1841.9,-59.8 1582.89,-59.8 1582.89,-59.8 1582.89,-59.8 1582.89,-114.79 1582.89,-114.79"/>
<polygon fill="black" stroke="black" points="1579.39,-114.79 1582.89,-124.79 1586.39,-114.79 1579.39,-114.79"/>
</g>
<!-- PrismaModule&#45;&gt;CategoryModule -->
<g id="edge12" class="edge">
<title>PrismaModule&#45;&gt;CategoryModule</title>
<path fill="none" stroke="black" d="M2026.61,-84.81C2026.61,-84.81 2026.61,-114.65 2026.61,-114.65"/>
<polygon fill="black" stroke="black" points="2023.11,-114.65 2026.61,-124.65 2030.11,-114.65 2023.11,-114.65"/>
</g>
<!-- PrismaModule&#45;&gt;OrderModule -->
<g id="edge15" class="edge">
<title>PrismaModule&#45;&gt;OrderModule</title>
<path fill="none" stroke="black" d="M1952.6,-64.8C1866.18,-64.8 1696.66,-64.8 1696.66,-64.8 1696.66,-64.8 1696.66,-114.71 1696.66,-114.71"/>
<polygon fill="black" stroke="black" points="1693.16,-114.71 1696.66,-124.71 1700.16,-114.71 1693.16,-114.71"/>
</g>
<!-- ProductModule -->
<g id="node5" class="node">
<title>ProductModule</title>
<polygon fill="#8dd3c7" stroke="black" points="2178.6,-160.8 2175.6,-164.8 2154.6,-164.8 2151.6,-160.8 2075.4,-160.8 2075.4,-124.8 2178.6,-124.8 2178.6,-160.8"/>
<text text-anchor="middle" x="2127" y="-138.6" font-family="Times,serif" font-size="14.00">ProductModule</text>
</g>
<!-- PrismaModule&#45;&gt;ProductModule -->
<g id="edge21" class="edge">
<title>PrismaModule&#45;&gt;ProductModule</title>
<path fill="none" stroke="black" d="M2051.37,-75.8C2095.34,-75.8 2152.78,-75.8 2152.78,-75.8 2152.78,-75.8 2152.78,-114.49 2152.78,-114.49"/>
<polygon fill="black" stroke="black" points="2149.28,-114.49 2152.78,-124.49 2156.28,-114.49 2149.28,-114.49"/>
</g>
<!-- TableModule -->
<g id="node6" class="node">
<title>TableModule</title>
<polygon fill="#8dd3c7" stroke="black" points="1824.92,-160.8 1821.92,-164.8 1800.92,-164.8 1797.92,-160.8 1733.08,-160.8 1733.08,-124.8 1824.92,-124.8 1824.92,-160.8"/>
<text text-anchor="middle" x="1779" y="-138.6" font-family="Times,serif" font-size="14.00">TableModule</text>
</g>
<!-- PrismaModule&#45;&gt;TableModule -->
<g id="edge24" class="edge">
<title>PrismaModule&#45;&gt;TableModule</title>
<path fill="none" stroke="black" d="M1952.65,-69.8C1894.71,-69.8 1806.43,-69.8 1806.43,-69.8 1806.43,-69.8 1806.43,-114.76 1806.43,-114.76"/>
<polygon fill="black" stroke="black" points="1802.93,-114.76 1806.43,-124.76 1809.93,-114.76 1802.93,-114.76"/>
</g>
<!-- UserModule -->
<g id="node7" class="node">
<title>UserModule</title>
<polygon fill="#8dd3c7" stroke="black" points="1928.99,-160.8 1925.99,-164.8 1904.99,-164.8 1901.99,-160.8 1843.01,-160.8 1843.01,-124.8 1928.99,-124.8 1928.99,-160.8"/>
<text text-anchor="middle" x="1886" y="-138.6" font-family="Times,serif" font-size="14.00">UserModule</text>
</g>
<!-- PrismaModule&#45;&gt;UserModule -->
<g id="edge28" class="edge">
<title>PrismaModule&#45;&gt;UserModule</title>
<path fill="none" stroke="black" d="M1952.68,-79.8C1931.62,-79.8 1911.8,-79.8 1911.8,-79.8 1911.8,-79.8 1911.8,-114.58 1911.8,-114.58"/>
<polygon fill="black" stroke="black" points="1908.3,-114.58 1911.8,-124.58 1915.3,-114.58 1908.3,-114.58"/>
</g>
<!-- PrismaModule&#45;&gt;AppModule -->
<g id="edge4" class="edge">
<title>PrismaModule&#45;&gt;AppModule</title>
<path fill="none" stroke="black" d="M1952.46,-74.8C1902.86,-74.8 1833.86,-74.8 1833.86,-74.8 1833.86,-74.8 1833.86,-179.59 1833.86,-179.59"/>
<polygon fill="black" stroke="black" points="1830.36,-179.59 1833.86,-189.59 1837.36,-179.59 1830.36,-179.59"/>
</g>
<!-- PrismaService  -->
<g id="node15" class="node">
<title>PrismaService </title>
<polygon fill="#fb8072" stroke="black" points="2489.37,-160.8 2388.63,-160.8 2388.63,-124.8 2489.37,-124.8 2489.37,-160.8"/>
<text text-anchor="middle" x="2439" y="-138.6" font-family="Times,serif" font-size="14.00">PrismaService </text>
</g>
<!-- PrismaModule&#45;&gt;PrismaService  -->
<g id="edge19" class="edge">
<title>PrismaModule&#45;&gt;PrismaService </title>
<path fill="none" stroke="black" stroke-dasharray="5,2" d="M2051.28,-57.8C2165.57,-57.8 2439,-57.8 2439,-57.8 2439,-57.8 2439,-114.77 2439,-114.77"/>
<polygon fill="black" stroke="black" points="2435.5,-114.77 2439,-124.77 2442.5,-114.77 2435.5,-114.77"/>
</g>
<!-- ProductModule&#45;&gt;AppModule -->
<g id="edge5" class="edge">
<title>ProductModule&#45;&gt;AppModule</title>
<path fill="none" stroke="black" d="M2127,-161.08C2127,-182.12 2127,-213.8 2127,-213.8 2127,-213.8 1883.95,-213.8 1883.95,-213.8"/>
<polygon fill="black" stroke="black" points="1883.95,-210.3 1873.95,-213.8 1883.95,-217.3 1883.95,-210.3"/>
</g>
<!-- TableModule&#45;&gt;AppModule -->
<g id="edge6" class="edge">
<title>TableModule&#45;&gt;AppModule</title>
<path fill="none" stroke="black" d="M1807.44,-160.91C1807.44,-160.91 1807.44,-179.79 1807.44,-179.79"/>
<polygon fill="black" stroke="black" points="1803.94,-179.79 1807.44,-189.79 1810.94,-179.79 1803.94,-179.79"/>
</g>
<!-- UserModule&#45;&gt;AppModule -->
<g id="edge7" class="edge">
<title>UserModule&#45;&gt;AppModule</title>
<path fill="none" stroke="black" d="M1858.42,-160.91C1858.42,-160.91 1858.42,-179.79 1858.42,-179.79"/>
<polygon fill="black" stroke="black" points="1854.92,-179.79 1858.42,-189.79 1861.92,-179.79 1854.92,-179.79"/>
</g>
<!-- AppService -->
<g id="node9" class="node">
<title>AppService</title>
<ellipse fill="#fdb462" stroke="black" cx="1436" cy="-142.8" rx="56.75" ry="18"/>
<text text-anchor="middle" x="1436" y="-138.6" font-family="Times,serif" font-size="14.00">AppService</text>
</g>
<!-- AppService&#45;&gt;AppModule -->
<g id="edge8" class="edge">
<title>AppService&#45;&gt;AppModule</title>
<path fill="none" stroke="black" d="M1436,-161.09C1436,-183.01 1436,-216.8 1436,-216.8 1436,-216.8 1780,-216.8 1780,-216.8"/>
<polygon fill="black" stroke="black" points="1780,-220.3 1790,-216.8 1780,-213.3 1780,-220.3"/>
</g>
<!-- AuthService -->
<g id="node10" class="node">
<title>AuthService</title>
<ellipse fill="#fdb462" stroke="black" cx="83" cy="-66.8" rx="59.11" ry="18"/>
<text text-anchor="middle" x="83" y="-62.6" font-family="Times,serif" font-size="14.00">AuthService</text>
</g>
<!-- AuthService&#45;&gt;AuthModule -->
<g id="edge10" class="edge">
<title>AuthService&#45;&gt;AuthModule</title>
<path fill="none" stroke="black" d="M83,-84.83C83,-101.2 83,-122.8 83,-122.8 83,-122.8 1539.11,-122.8 1539.11,-122.8 1539.11,-122.8 1539.11,-122.98 1539.11,-122.98"/>
<polygon fill="black" stroke="black" points="1535.61,-114.65 1539.11,-124.65 1542.61,-114.65 1535.61,-114.65"/>
</g>
<!-- JwtStrategy -->
<g id="node11" class="node">
<title>JwtStrategy</title>
<ellipse fill="#fdb462" stroke="black" cx="217" cy="-66.8" rx="56.77" ry="18"/>
<text text-anchor="middle" x="217" y="-62.6" font-family="Times,serif" font-size="14.00">JwtStrategy</text>
</g>
<!-- JwtStrategy&#45;&gt;AuthModule -->
<g id="edge11" class="edge">
<title>JwtStrategy&#45;&gt;AuthModule</title>
<path fill="none" stroke="black" d="M183.02,-81.28C183.02,-96.97 183.02,-119.8 183.02,-119.8 183.02,-119.8 1561,-119.8 1561,-119.8 1561,-119.8 1561,-120.29 1561,-120.29"/>
<polygon fill="black" stroke="black" points="1557.5,-114.68 1561,-124.68 1564.5,-114.68 1557.5,-114.68"/>
</g>
<!-- JwtStrategy&#45;&gt;OrderModule -->
<g id="edge17" class="edge">
<title>JwtStrategy&#45;&gt;OrderModule</title>
<path fill="none" stroke="black" d="M205.67,-84.57C205.67,-98.94 205.67,-116.8 205.67,-116.8 205.67,-116.8 1641.34,-116.8 1641.34,-116.8 1641.34,-116.8 1641.34,-117.59 1641.34,-117.59"/>
<polygon fill="black" stroke="black" points="1637.84,-114.74 1641.34,-124.74 1644.84,-114.74 1637.84,-114.74"/>
</g>
<!-- JwtStrategy&#45;&gt;TableModule -->
<g id="edge26" class="edge">
<title>JwtStrategy&#45;&gt;TableModule</title>
<path fill="none" stroke="black" d="M228.33,-84.86C228.33,-96.24 228.33,-108.8 228.33,-108.8 228.33,-108.8 1751.57,-108.8 1751.57,-108.8 1751.57,-108.8 1751.57,-114.61 1751.57,-114.61"/>
<polygon fill="black" stroke="black" points="1748.07,-114.61 1751.57,-124.61 1755.07,-114.61 1748.07,-114.61"/>
</g>
<!-- JwtStrategy&#45;&gt;UserModule -->
<g id="edge30" class="edge">
<title>JwtStrategy&#45;&gt;UserModule</title>
<path fill="none" stroke="black" d="M250.98,-81.42C250.98,-90.63 250.98,-100.8 250.98,-100.8 250.98,-100.8 1860.2,-100.8 1860.2,-100.8 1860.2,-100.8 1860.2,-114.74 1860.2,-114.74"/>
<polygon fill="black" stroke="black" points="1856.7,-114.74 1860.2,-124.74 1863.7,-114.74 1856.7,-114.74"/>
</g>
<!-- CategoryService -->
<g id="node12" class="node">
<title>CategoryService</title>
<ellipse fill="#fdb462" stroke="black" cx="598" cy="-66.8" rx="75.28" ry="18"/>
<text text-anchor="middle" x="598" y="-62.6" font-family="Times,serif" font-size="14.00">CategoryService</text>
</g>
<!-- CategoryService&#45;&gt;CategoryModule -->
<g id="edge13" class="edge">
<title>CategoryService&#45;&gt;CategoryModule</title>
<path fill="none" stroke="black" d="M598,-84.86C598,-89.29 598,-92.8 598,-92.8 598,-92.8 2002,-92.8 2002,-92.8 2002,-92.8 2002,-114.75 2002,-114.75"/>
<polygon fill="black" stroke="black" points="1998.5,-114.75 2002,-124.75 2005.5,-114.75 1998.5,-114.75"/>
</g>
<!-- JwtAdmOnlyStrategy -->
<g id="node13" class="node">
<title>JwtAdmOnlyStrategy</title>
<ellipse fill="#fdb462" stroke="black" cx="409" cy="-66.8" rx="95.02" ry="18"/>
<text text-anchor="middle" x="409" y="-62.6" font-family="Times,serif" font-size="14.00">JwtAdmOnlyStrategy</text>
</g>
<!-- JwtAdmOnlyStrategy&#45;&gt;CategoryModule -->
<g id="edge14" class="edge">
<title>JwtAdmOnlyStrategy&#45;&gt;CategoryModule</title>
<path fill="none" stroke="black" d="M440.75,-84C440.75,-90.25 440.75,-95.8 440.75,-95.8 440.75,-95.8 1977.39,-95.8 1977.39,-95.8 1977.39,-95.8 1977.39,-114.76 1977.39,-114.76"/>
<polygon fill="black" stroke="black" points="1973.89,-114.76 1977.39,-124.76 1980.89,-114.76 1973.89,-114.76"/>
</g>
<!-- JwtAdmOnlyStrategy&#45;&gt;OrderModule -->
<g id="edge16" class="edge">
<title>JwtAdmOnlyStrategy&#45;&gt;OrderModule</title>
<path fill="none" stroke="black" d="M345.49,-80.43C345.49,-94.62 345.49,-114.8 345.49,-114.8 345.49,-114.8 1659.78,-114.8 1659.78,-114.8 1659.78,-114.8 1659.78,-115.78 1659.78,-115.78"/>
<polygon fill="black" stroke="black" points="1656.28,-114.59 1659.78,-124.59 1663.28,-114.59 1656.28,-114.59"/>
</g>
<!-- JwtAdmOnlyStrategy&#45;&gt;ProductModule -->
<g id="edge22" class="edge">
<title>JwtAdmOnlyStrategy&#45;&gt;ProductModule</title>
<path fill="none" stroke="black" d="M472.51,-80.48C472.51,-85.87 472.51,-90.8 472.51,-90.8 472.51,-90.8 2101.22,-90.8 2101.22,-90.8 2101.22,-90.8 2101.22,-114.61 2101.22,-114.61"/>
<polygon fill="black" stroke="black" points="2097.72,-114.61 2101.22,-124.61 2104.72,-114.61 2097.72,-114.61"/>
</g>
<!-- JwtAdmOnlyStrategy&#45;&gt;TableModule -->
<g id="edge25" class="edge">
<title>JwtAdmOnlyStrategy&#45;&gt;TableModule</title>
<path fill="none" stroke="black" d="M377.25,-84C377.25,-94.84 377.25,-106.8 377.25,-106.8 377.25,-106.8 1769.86,-106.8 1769.86,-106.8 1769.86,-106.8 1769.86,-114.38 1769.86,-114.38"/>
<polygon fill="black" stroke="black" points="1766.36,-114.38 1769.86,-124.38 1773.36,-114.38 1766.36,-114.38"/>
</g>
<!-- JwtAdmOnlyStrategy&#45;&gt;UserModule -->
<g id="edge29" class="edge">
<title>JwtAdmOnlyStrategy&#45;&gt;UserModule</title>
<path fill="none" stroke="black" d="M409,-85.04C409,-92.23 409,-98.8 409,-98.8 409,-98.8 1877.4,-98.8 1877.4,-98.8 1877.4,-98.8 1877.4,-114.65 1877.4,-114.65"/>
<polygon fill="black" stroke="black" points="1873.9,-114.65 1877.4,-124.65 1880.9,-114.65 1873.9,-114.65"/>
</g>
<!-- OrderService -->
<g id="node14" class="node">
<title>OrderService</title>
<ellipse fill="#fdb462" stroke="black" cx="776" cy="-66.8" rx="62.53" ry="18"/>
<text text-anchor="middle" x="776" y="-62.6" font-family="Times,serif" font-size="14.00">OrderService</text>
</g>
<!-- OrderService&#45;&gt;OrderModule -->
<g id="edge18" class="edge">
<title>OrderService&#45;&gt;OrderModule</title>
<path fill="none" stroke="black" d="M776,-84.84C776,-97.36 776,-111.8 776,-111.8 776,-111.8 1678.22,-111.8 1678.22,-111.8 1678.22,-111.8 1678.22,-114.77 1678.22,-114.77"/>
<polygon fill="black" stroke="black" points="1674.72,-114.77 1678.22,-124.77 1681.72,-114.77 1674.72,-114.77"/>
</g>
<!-- PrismaService -->
<g id="node16" class="node">
<title>PrismaService</title>
<ellipse fill="#fdb462" stroke="black" cx="2298" cy="-142.8" rx="66.64" ry="18"/>
<text text-anchor="middle" x="2298" y="-138.6" font-family="Times,serif" font-size="14.00">PrismaService</text>
</g>
<!-- PrismaService&#45;&gt;PrismaModule -->
<g id="edge20" class="edge">
<title>PrismaService&#45;&gt;PrismaModule</title>
<path fill="none" stroke="black" d="M2298,-124.79C2298,-102.31 2298,-66.8 2298,-66.8 2298,-66.8 2061.54,-66.8 2061.54,-66.8"/>
<polygon fill="black" stroke="black" points="2061.54,-63.3 2051.54,-66.8 2061.54,-70.3 2061.54,-63.3"/>
</g>
<!-- ProductService -->
<g id="node17" class="node">
<title>ProductService</title>
<ellipse fill="#fdb462" stroke="black" cx="949" cy="-66.8" rx="70.07" ry="18"/>
<text text-anchor="middle" x="949" y="-62.6" font-family="Times,serif" font-size="14.00">ProductService</text>
</g>
<!-- ProductService&#45;&gt;ProductModule -->
<g id="edge23" class="edge">
<title>ProductService&#45;&gt;ProductModule</title>
<path fill="none" stroke="black" d="M949,-84.88C949,-86.65 949,-87.8 949,-87.8 949,-87.8 2127,-87.8 2127,-87.8 2127,-87.8 2127,-114.79 2127,-114.79"/>
<polygon fill="black" stroke="black" points="2123.5,-114.79 2127,-124.79 2130.5,-114.79 2123.5,-114.79"/>
</g>
<!-- TableService -->
<g id="node18" class="node">
<title>TableService</title>
<ellipse fill="#fdb462" stroke="black" cx="1121" cy="-66.8" rx="61.95" ry="18"/>
<text text-anchor="middle" x="1121" y="-62.6" font-family="Times,serif" font-size="14.00">TableService</text>
</g>
<!-- TableService&#45;&gt;TableModule -->
<g id="edge27" class="edge">
<title>TableService&#45;&gt;TableModule</title>
<path fill="none" stroke="black" d="M1121,-84.87C1121,-94.26 1121,-103.8 1121,-103.8 1121,-103.8 1788.14,-103.8 1788.14,-103.8 1788.14,-103.8 1788.14,-114.67 1788.14,-114.67"/>
<polygon fill="black" stroke="black" points="1784.64,-114.67 1788.14,-124.67 1791.64,-114.67 1784.64,-114.67"/>
</g>
<!-- UserService -->
<g id="node19" class="node">
<title>UserService</title>
<ellipse fill="#fdb462" stroke="black" cx="1281" cy="-66.8" rx="58.46" ry="18"/>
<text text-anchor="middle" x="1281" y="-62.6" font-family="Times,serif" font-size="14.00">UserService</text>
</g>
<!-- UserService&#45;&gt;UserModule -->
<g id="edge31" class="edge">
<title>UserService&#45;&gt;UserModule</title>
<path fill="none" stroke="black" d="M1324.64,-54.8C1464.82,-54.8 1894.6,-54.8 1894.6,-54.8 1894.6,-54.8 1894.6,-114.57 1894.6,-114.57"/>
<polygon fill="black" stroke="black" points="1891.1,-114.57 1894.6,-124.57 1898.1,-114.57 1891.1,-114.57"/>
</g>
</g>
</svg>
